<?xml version="1.0" encoding="UTF-8"?>
<!-- Generator: visioncortex VTracer 0.6.12 -->
<svg version="1.1" xmlns="http://www.w3.org/2000/svg" viewBox="0 0 1440 584">

<path d="M0 0 C0.7805588740110352 -0.0023723521828742378 1.5611177480220704 -0.004744704365720054 2.365329921245575 -0.007188946008682251 C4.996790139191546 -0.011480254511354815 7.627672986289724 0.005785974640133418 10.259075164794922 0.02285480499267578 C12.15835830717856 0.024244414432502026 14.05764279454911 0.02431844934341143 15.956926107406616 0.023185551166534424 C21.188658327420285 0.023928313390769063 26.42017848393425 0.04352887954223661 31.65185570716858 0.06614077091217041 C37.289330422082 0.08726204025430206 42.92681984203227 0.09109899670980326 48.564327239990234 0.09708881378173828 C59.6143199780106 0.1116163414035043 70.66421199881472 0.14232096686956197 81.71415266394615 0.17854215949773788 C94.5768834394787 0.22017648483682706 107.43963170120901 0.24652545919667546 120.30240222811699 0.2723684683442116 C143.94663214532807 0.32047545583623105 167.590784953048 0.38482580152771106 191.23495234176517 0.456486233510077 C212.81872026542635 0.5218156489355579 234.40248240558049 0.5746392408552765 255.98630905151367 0.6161928176879883 C257.37159273091197 0.6188635622807226 258.7568764096825 0.6215346324364077 260.14216008782387 0.6242060288786888 C260.8270168743934 0.6255266290926329 261.51187366096303 0.626847229306577 262.21748368348926 0.6282078477088362 C265.66496802199345 0.6348626102659694 269.1124523026597 0.6415465499120501 272.5599365234375 0.6482620239257813 C272.9000039770175 0.6489239844563315 272.9000039770175 0.6489239844563315 274.6209513936192 0.652273905929178 C292.652761507331 0.6875452583187496 310.6845467747537 0.7322608420599295 328.71632838249207 0.7798917889595032 C331.301345027627 0.7867158283104061 333.8863616755915 0.7935387958763158 336.471378326416 0.8003606796264648 C337.107352919057 0.8020445041172195 337.107352919057 0.8020445041172195 340.3257697969675 0.8105656765401363 C349.29439027426156 0.8339425763793145 358.2630141518641 0.8530918373881207 367.2316474914551 0.8707609176635742 C378.16274996184825 0.8924904887220464 389.0938052097795 0.9215058553513416 400.02486285567284 0.9597401842474937 C405.6034688870569 0.979094746526215 411.1820361869892 0.9953013568413382 416.7606716156006 1.0029516220092773 C421.86691904057716 1.0100551156657787 426.97305229222286 1.0263071265353858 432.079249471426 1.0498853102326393 C433.9271641567972 1.0568225517938004 435.77509499964356 1.0604210642758574 437.62302270531654 1.0603552088141441 C440.1347240276127 1.0607714896204357 442.6460839457495 1.0733857934964703 445.15773010253906 1.089019775390625 C445.87517385184765 1.0862276360392684 446.59261760115623 1.0834354966878834 447.33180207014084 1.0805587470531464 C457.38175760919853 1.1798585740897352 465.8655483480186 4.423667920006352 473.3461723327637 11.179425239562988 C484.42028169041066 23.072055723644752 485.6495486052755 36.46075667566856 485.5961723327637 52.06223773956299 C485.59752401463106 53.47172327989799 485.5994687045304 54.88120836156139 485.6019706726074 56.29069232940674 C485.60490217907295 59.2323272272732 485.6006910367187 62.17383983961875 485.5912895202637 65.11546039581299 C485.5799384498912 68.84459105968904 485.5864393846141 72.57343231655696 485.5984344482422 76.30255222320557 C485.6057430623573 79.21118474002958 485.6033237016675 82.11975135477206 485.5981788635254 85.02838611602783 C485.59623558518024 87.05865387549528 485.6022049024641 89.08892442632836 485.6084403991699 91.11918354034424 C485.5482202608996 103.23151199022107 485.4775307163909 115.15225879413805 478.3305473327637 125.35911273956299 C477.7324223327637 126.26661273956302 477.1342973327637 127.17411273956299 476.5180473327637 128.109112739563 C469.71621807346173 135.10527997770208 460.5942531958044 138.3560488097915 450.9453544616699 138.7511110305786 C448.9804461700577 138.7741907464922 447.01530888341586 138.7815126674559 445.0502738952637 138.775616645813 C444.5067597007751 138.77991923809054 444.5067597007751 138.77991923809054 441.7562484741211 138.80169296264648 C438.1611550938129 138.82678863012273 434.56634563251373 138.83120073693237 430.9711723327637 138.835675239563 C428.4150936135567 138.84974716963808 425.8590221373902 138.86519334287402 423.3029594421387 138.88192462921143 C417.87518415155387 138.91485376411924 412.4474823110427 138.93932684463562 407.0196342468262 138.9558229446411 C398.5720689621519 138.98169005179057 390.12467973556363 139.02763440631765 381.6772270202637 139.077618598938 C378.8555110551939 139.0941419404508 376.0337946064062 139.11058164493056 373.2120780944824 139.1270112991333 C372.5149905610085 139.1310923928022 371.8179030275345 139.13517348647122 371.0996916294098 139.13937824964523 C366.17496494016757 139.16800287295092 361.25022836077574 139.19391030751615 356.3254814147949 139.21877765655518 C333.5723417624448 139.33508872530354 310.8218819733271 139.56836986645067 288.07070541381836 139.8868761062622 C285.57728927922017 139.92165818800743 283.0838643794308 139.95572441308627 280.5904350280762 139.98954486846924 C271.8370736516971 140.1083197735265 263.0837715466563 140.2305587865867 254.33054733276367 140.359112739563 C253.14327653378564 142.73365433751906 253.22752814428463 144.1152388995497 253.26462936401367 146.761212348938 C253.26950866699212 147.2167725753784 253.26950866699212 147.2167725753784 253.2942008972168 149.52218341827393 C253.301487121582 150.0154134750366 253.301487121582 150.0154134750366 253.33835983276367 152.511456489563 C253.35587551750166 154.58762348223945 253.37278385680008 156.66379567171185 253.38914108276367 158.739972114563 C253.42013618062595 162.02323855239945 253.4556830755264 165.3062483324128 253.50193405151367 168.589337348938 C253.54418012629526 171.75091017008828 253.5676885543338 174.91217905222328 253.58835983276367 178.073956489563 C253.59767028808596 178.56617443084718 253.59767028808596 178.56617443084718 253.6447868347168 181.05709552764893 C253.6482411193847 181.9713681411743 253.65169540405282 182.8856407546997 253.65525436401367 183.827618598938 C253.66493240356453 184.63210941314696 253.67461044311517 185.43660022735594 253.6845817565918 186.26546955108643 C253.23608510446002 188.91773130189847 252.48729591657593 189.78571761115745 250.33054733276367 191.359112739563 C247.62531180168537 191.64510817699068 245.1551607003455 191.75586793252603 242.45164108276367 191.722393989563 C242.06770439147954 191.72264324188234 242.06770439147954 191.72264324188234 240.12475204467773 191.72390460968018 C238.50330132803492 191.721566072943 236.88184685034162 191.7118504316727 235.26047897338867 191.695294380188 C232.77374090113665 191.6716668365492 230.28807249870215 191.67473897020864 227.80125045776367 191.681378364563 C226.22637425345147 191.67580267796245 224.65150257383914 191.66869348484488 223.07664108276367 191.659893989563 C222.3307925415039 191.6608053970337 221.58494400024415 191.6617168045044 220.8164939880371 191.6626558303833 C215.56159023921646 191.59015564601577 215.56159023921646 191.59015564601577 213.33054733276367 189.359112739563 C213.13199207899834 186.62906150706465 213.05782953034281 184.0004454180874 213.07175827026367 181.269268989563 C213.07000595092768 180.85132572174075 213.07000595092768 180.85132572174075 213.06113815307617 178.73627948760986 C213.0523131971987 175.9646401976094 213.05817265238613 173.1932547669104 213.06492233276367 170.421612739563 C213.06357590162543 168.50112070251373 213.06163555487933 166.58062899694653 213.05912399291992 164.660138130188 C213.0561716944842 160.63170348376633 213.0604737690378 156.60335741924462 213.06980514526367 152.574933052063 C213.0811997314221 147.40280830990594 213.07464082467516 142.2308911157961 213.06266021728516 137.0587739944458 C213.05544447087038 133.0920475839058 213.05772823094696 129.12537064300597 213.06291580200195 125.15864276885986 C213.0642530899679 123.25119216328716 213.06260182894107 121.34373711293614 213.05795669555664 119.43629169464111 C213.05289613833554 116.77372502135378 213.0605949786136 114.11149778336733 213.07175827026367 111.44895648956299 C213.0677098083496 110.65512561798096 213.06366134643554 109.86129474639893 213.05949020385742 109.04340839385986 C213.10201904929886 103.58764102302783 213.10201904929886 103.58764102302783 215.33054733276367 101.35911273956299 C217.98447890440013 101.15801212922224 220.53480166283862 101.0827970351366 223.19024276733398 101.09409809112549 C224.01174039065836 101.08971682071686 224.83323801398274 101.08533555030823 225.67962950468063 101.08082151412964 C228.44849577958416 101.06844281158902 231.21717406383618 101.07031364905859 233.98606491088867 101.07200336456299 C235.96524462676325 101.06598244396852 237.94442177443102 101.05905904228052 239.9235954284668 101.05129718780518 C244.195548419872 101.03637444312307 248.4674543933354 101.0276503544552 252.7394313812256 101.02358722686768 C259.50200332592317 101.01688322037455 266.2644749425258 100.99513626202742 273.02700424194336 100.97105121612549 C287.39899508754206 100.9220059896058 301.771007333851 100.88978296986835 316.1430473327637 100.85911273956299 C331.62041373153306 100.82602005811628 347.0977410727934 100.78993686573642 362.5750476717949 100.73498201370239 C369.2885173562638 100.71171100616544 376.00191817650466 100.69791117925485 382.7154241800308 100.6914873123169 C386.9093910535054 100.68551802408666 391.1033027881872 100.67139391480586 395.2972412109375 100.65514278411865 C397.2316814717956 100.64930193051285 399.1661353207196 100.64678719888599 401.10058403015137 100.64798259735107 C428.6231821475003 100.66013323160439 428.6231821475003 100.66013323160439 436.3305473327637 95.35911273956299 C443.96920219504796 87.7204578772787 442.56696208886774 78.03424602323827 442.6430473327637 67.85911273956299 C442.65754928588865 67.21264789581298 442.65754928588865 67.21264789581298 442.7309379577637 63.94114398956299 C442.77869050785034 56.792954568885676 442.57516746867555 52.186046890637215 438.3305473327637 46.35911273956299 C438.3305473327637 45.69911273956299 438.3305473327637 45.039112739562995 438.3305473327637 44.35911273956299 C431.76039081214935 40.800277957563566 426.0376886289274 38.98427843881575 418.5609884262085 38.98273181915283 C417.81821390837433 38.97848070204259 417.07543939054017 38.97422958493232 416.3101565539837 38.96984964609146 C413.8313869665112 38.95927592928862 411.35317884226095 38.96995172322562 408.87441635131836 38.98057270050049 C407.07535902100403 38.977280461917076 405.2763037077045 38.972665784938556 403.47725278139114 38.96684503555298 C398.54137748156313 38.95464026453652 393.6056740471661 38.960995934436596 388.6697989702225 38.97035002708435 C383.34398470410133 38.97714799206159 378.0182020384907 38.966613217505966 372.6923942565918 38.9580659866333 C363.46697479358477 38.94550140553184 354.241602197956 38.94352575336177 345.0161762237549 38.9484224319458 C331.6745076804873 38.95522694711616 318.3329099051341 38.942719977434734 304.99125400930643 38.92491525411606 C283.3407643879782 38.89626844040018 261.690282405433 38.87875249371186 240.03977584838867 38.87034320831299 C238.74416936613625 38.86983602941035 237.4485628838837 38.86932885050774 236.11369559913874 38.868806302547455 C225.59818564584293 38.864773280388135 215.0826755259934 38.86127887037793 204.56716537475586 38.85780906677246 C195.36793126432644 38.85475123598195 186.16869726459765 38.85147919985138 176.96946334838867 38.84788227081299 C175.67391826950018 38.84737965524198 174.37837319061157 38.84687703967094 173.04356916993856 38.84635919332504 C151.46795998359357 38.83762561421483 129.8923771245412 38.817212596074256 108.316785633564 38.788400173187256 C95.00215287814467 38.77119038333694 81.68759445439537 38.76464865941068 68.37295202165842 38.771706223487854 C59.25897760107091 38.7758743686378 50.145050175570304 38.76957208401839 41.03108670562506 38.75490748882294 C35.76695278477155 38.746821819464145 30.50293527026463 38.74378484973573 25.238801956176758 38.753729820251465 C20.425935589199298 38.76274682579222 15.613286358248729 38.75817356667358 10.800438798964024 38.74251538515091 C9.053666093643415 38.739308552867755 7.3068753138470015 38.74124794071051 5.5601154789328575 38.748680770397186 C3.196775977845732 38.75802559978189 0.8342021284333896 38.749153173139206 -1.529099464416504 38.735493659973145 C-2.1870749679208075 38.7353574681282 -2.1870749679208075 38.7353574681282 -5.516829788684845 38.734668254852295 C-8.669452667236328 38.35911273956299 -8.669452667236328 38.35911273956299 -10.59047144651413 37.03749322891235 C-12.398888893165463 34.22445765353223 -12.078476693276798 31.462737416720387 -12.103046417236328 28.17161273956299 C-12.108288269042987 27.47269916534424 -12.113530120849589 26.77378559112549 -12.11893081665039 26.05369281768799 C-12.125347132982995 24.577713481794916 -12.124018976936213 23.10168298569019 -12.115497589111328 21.62571430206299 C-12.106981088713724 19.366651739454824 -12.135758051616904 17.110113292944305 -12.167499542236328 14.851300239562988 C-12.169111536397054 13.416405164009575 -12.168534054409463 11.98150561026685 -12.165546417236328 10.546612739562988 C-12.167399444580099 9.240792427062985 -12.169252471923812 7.9349721145629815 -12.171161651611328 6.589581489562988 C-11.669452667236328 3.3591127395629883 -11.669452667236328 3.3591127395629883 -10.117436647415161 1.679652988910675 C-6.766065147073277 -0.1282105398346971 -3.711787842673232 -0.04552194295641243 0 0 Z " fill="currentColor" transform="translate(500.6694526672363,133.640887260437)"/>
<path d="M0 0 C1.1952795236930456 0.00015598062424260206 2.3905590473860343 0.00031196124854204754 3.6220591627061367 0.0004726685583591461 C4.288598623962628 -0.0008054176508380806 4.955138085219062 -0.0020835038600353073 5.641875711968169 -0.003400319954380393 C7.907815633649307 -0.006498215830958998 10.173687746235771 -0.002378861698161927 12.4396254979074 0.0016233362257480621 C14.074591235748528 0.0008846194958778142 15.709556824726405 -0.00029297558972984916 17.344521965831518 -0.001873161643743515 C21.87941033045803 -0.004963186942234188 26.41427653321989 -0.001749790187943745 30.949163259007037 0.002404971979558468 C35.86678992952318 0.005821407223493225 40.78441421397048 0.003471785780789105 45.70204132422805 0.001827482134103775 C54.33469236716786 -0.00025248991380522057 62.967336540138376 0.0014080969264114174 71.59998678788543 0.005465690046548843 C84.43657082183245 0.011482563568392834 97.2731504929074 0.011803188827514077 110.10973567981273 0.010923701338469982 C131.69934535947277 0.009607480930640122 153.28895198679658 0.012959990223805562 174.8785607777536 0.018941108137369156 C196.26583276140673 0.024851031205344043 217.65310357291276 0.02871532170854607 239.04037642106414 0.02979392185807228 C239.37221371599912 0.029811127791447234 239.37221371599912 0.029811127791447234 241.05151154188206 0.029898200242314488 C247.11296350842156 0.030211390157262485 253.17441547594285 0.030499081954758367 259.2358674451243 0.030756174819543958 C274.3054188713486 0.031395653727656736 289.37497026814003 0.03235502756689357 304.44452166184783 0.033531371504068375 C304.78767689747065 0.03355803024226134 304.78767689747065 0.03355803024226134 306.5242503625923 0.033692939614411443 C339.92694534678435 0.03631583106971448 373.329639501339 0.042623951293876416 406.732333894819 0.04923171177506447 C418.32695872568456 0.05152332727254816 429.921583559396 0.05379867026499596 441.51620840653777 0.05600661411881447 C442.2352869690285 0.05614356329840575 442.9543655315192 0.056280512477997036 443.69523435347946 0.05642161163268611 C477.10983375176806 0.0627631497367247 510.5244332922505 0.06649046100636724 543.9390331342584 0.069541409262456 C546.1077559161924 0.06973947363013622 548.2764786980204 0.0699386660932646 550.4452014798298 0.07013808842748404 C564.8171789832402 0.07145784478808537 579.1891564904266 0.07273249835822071 593.5611340005416 0.07397694769315422 C622.1589445073743 0.07645358963560511 650.7567549869505 0.07919527815982974 679.3545654515037 0.08211899490561336 C680.7165344775232 0.08225823466511883 682.0785035035616 0.08239728926753287 683.440472529619 0.08253615780267864 C774.0786946043256 0.09178005406147349 864.7169157130502 0.10766854354574207 955.355136629194 0.12467116490006447 C955.7373243000186 1.7808177384733312 956.0690876464091 3.4492414085877954 956.355136629194 5.1246711649000645 C955.355136629194 6.1246711649000645 955.355136629194 6.1246711649000645 952.710273258388 6.249342329800129 C951.514993734695 6.249186349175886 950.3197142110021 6.249030368551587 949.0882140956819 6.24886966124177 C948.4216746344255 6.250147747450967 947.755135173169 6.251425833660164 947.0683975464199 6.252742649754509 C944.8024576247394 6.255840545631088 942.5365855121518 6.251721191498291 940.2706477604806 6.247718993574381 C938.6356820226395 6.248457710304251 937.0007164336616 6.249635305389859 935.3657512925565 6.2512154914438725 C930.83086292793 6.254305516742363 926.2959967251682 6.251092119988073 921.761109999381 6.2469373578205705 C916.843483328865 6.243520922576636 911.9258590444174 6.24587054401934 907.00823193416 6.247514847666025 C898.3755808912206 6.249594819713934 889.7429367182494 6.2479342328737175 881.1102864705026 6.24387663975358 C868.2737024365556 6.237859766231736 855.4371227654806 6.237539140972615 842.6005375785753 6.238418628461659 C821.0109278989153 6.239734848869489 799.4213212715913 6.236382339576323 777.8317124806345 6.23040122166276 C756.4444404969814 6.224491298594785 735.0571696854753 6.220627008091583 713.6698968373239 6.219548407942057 C713.3380595423889 6.219531202008682 713.3380595423889 6.219531202008682 711.658761716506 6.2194441295578144 C705.5973097499668 6.2191309396428665 699.5358577824452 6.218843247845371 693.4744058132637 6.218586154980585 C678.4048543870394 6.217946676072472 663.3353029902479 6.216987302233235 648.2657515965402 6.215810958296061 C647.9225963609174 6.215784299557868 647.9225963609174 6.215784299557868 646.1860228957958 6.2156493901857175 C612.7833279116037 6.2130264987304145 579.3806337570492 6.2067183785062525 545.977939363569 6.2001106180250645 C534.3833145327036 6.197819002527581 522.788689698992 6.195543659535133 511.19406485185027 6.1933357156813145 C510.47498628935955 6.193198766501723 509.7559077268687 6.193061817322132 509.0150389049086 6.192920718167443 C475.60043950661975 6.186579180063404 442.18583996613756 6.182851868793762 408.7712401241297 6.179800920537673 C406.60251734219594 6.179602856169993 404.43379456036746 6.179403663706864 402.2650717785582 6.179204241372645 C387.89309427514775 6.177884485012044 373.5211167679613 6.176609831441908 359.1491392578464 6.175365382106975 C330.55132875101367 6.172888740164524 301.9535182714376 6.170147051640299 273.3557078068843 6.167223334894516 C271.99373878086476 6.16708409513501 270.63176975482634 6.166945040532596 269.26980072876904 6.16680617199745 C178.6315786540622 6.157562275738655 87.9933575453378 6.141673786254387 -2.6448633708059788 6.1246711649000645 C-3.027051041630557 4.468524591326798 -3.35881438802096 2.8001009212123336 -3.6448633708059788 1.1246711649000645 C-2.6448633708059788 0.12467116490006447 -2.6448633708059788 0.12467116490006447 0 0 Z " fill="currentColor" transform="translate(263.644863370806,359.87532883509994)"/>
<path d="M0 0 C0.33646545410158524 0.0009365844726687556 0.33646545410158524 0.0009365844726687556 2.0391845703125 0.00567626953125 C3.4579770548399438 0.012380715956084032 4.8767515555964565 0.026263388094918128 6.29541015625 0.046875 C8.461438883302208 0.07801987497896334 10.626738259432841 0.08784880456599353 12.79296875 0.09375 C24.9100020016665 0.17419299340846806 24.9100020016665 0.17419299340846806 27.96875 1.328125 C29.56755858540032 4.5257421708006405 29.12499388620904 7.997072084912702 29.1298828125 11.509765625 C29.13236526489254 11.932585678100594 29.13236526489254 11.932585678100594 29.144927978515625 14.072311401367188 C29.159562306961107 16.87634079129387 29.166352720309305 19.68031366085293 29.171875 22.484375 C29.17762416857215 24.42728680896886 29.183381927638266 26.370198592535587 29.18914794921875 28.3131103515625 C29.199660708615852 32.38859319291936 29.20550198314811 36.46405628274482 29.208984375 40.53955078125 C29.214478237608432 45.77225143934237 29.238524091054842 51.004693074183535 29.266956329345703 56.23731231689453 C29.28553839322103 60.250353746528845 29.290785871976595 64.26333213497298 29.292320251464844 68.27641296386719 C29.295355941115076 70.20620646795021 29.303415076077044 72.13599862864135 29.316505432128906 74.06575012207031 C29.333478182692147 76.75953169773936 29.331707724470448 79.4526716806551 29.3251953125 82.146484375 C29.329802703857467 82.54807518005373 29.329802703857467 82.54807518005373 29.353118896484375 84.58036804199219 C29.33624267578125 86.7982177734375 29.33624267578125 86.7982177734375 28.96875 90.328125 C25.312212559379077 92.76581662708065 22.57085147825967 92.61755764954972 18.34375 92.59375 C17.600444335937482 92.59566345214841 16.857138671874964 92.59757690429689 16.09130859375 92.59954833984375 C14.521155406349408 92.60090817228087 12.950990902864874 92.59722579104721 11.380859375 92.5888671875 C8.97760767099237 92.57816444711779 6.575103457617956 92.58876890051226 4.171875 92.6015625 C2.645831683649476 92.60024086895237 1.1197888323226834 92.59767840041923 -0.40625 92.59375 C-1.1250634765624454 92.59779846191407 -1.8438769531250045 92.60184692382813 -2.58447265625 92.60601806640625 C-6.284754337866843 92.57124181831756 -7.868914007502326 92.43634899499847 -11.03125 90.328125 C-11.338702008075188 87.53404732831473 -11.451013437829147 84.95996586058061 -11.435302734375 82.162353515625 C-11.442165985107408 81.31831970214841 -11.449029235839816 80.47428588867189 -11.456100463867188 79.60467529296875 C-11.474451980767867 76.80529108990294 -11.470519059007756 74.00646288957773 -11.46484375 71.20703125 C-11.469401699838613 69.26651322539368 -11.47470610624805 67.32599682146082 -11.480728149414063 65.38548278808594 C-11.489675777837306 61.314132199965115 -11.487217566071536 57.24297758597294 -11.477294921875 53.171630859375 C-11.465805828542443 47.94785530858172 -11.486007447608358 42.72475576878992 -11.515212059020996 37.50106906890869 C-11.53353757636728 33.49224023985505 -11.533288855450337 29.483574468384404 -11.52757453918457 25.474714279174805 C-11.527420861975088 23.548543187060318 -11.533503307005049 21.622361358875366 -11.545866012573242 19.696229934692383 C-11.560704791167723 17.004816149476767 -11.550151806267309 14.314664648071812 -11.532958984375 11.623291015625 C-11.542626953125023 10.823704681396492 -11.552294921875045 10.024118347167956 -11.562255859375 9.200302124023438 C-11.490219261560469 3.829020277144565 -11.490219261560469 3.829020277144565 -9.202163696289063 1.3319549560546875 C-6.070800533856868 -0.11598659551819424 -3.439639441603049 -0.02566895105672984 0 0 Z " fill="currentColor" transform="translate(662.03125,232.671875)"/>
<path d="M0 0 C1.1849555969238281 -0.009607543945321595 2.3699111938476563 -0.01921508789064319 3.5907745361328125 -0.02911376953125 C4.877193450927734 -0.03336364746093068 6.163612365722656 -0.03761352539061136 7.489013671875 -0.0419921875 C8.806088104248033 -0.047692260742167036 10.123162536621066 -0.053392333984390916 11.480148315429688 -0.05926513671875 C14.27192572283343 -0.06977543838803513 17.063674338093506 -0.0756175685113476 19.85546875 -0.0791015625 C23.426601346837742 -0.08457953767907611 26.997351354038983 -0.10859195490797902 30.568364143371582 -0.13707351684570313 C33.979406624951025 -0.16022250605601585 37.390396703572605 -0.16215137954293368 40.801513671875 -0.1669921875 C42.081859893798764 -0.17933898925781477 43.362206115722756 -0.19168579101562955 44.68135070800781 -0.20440673828125 C45.87576278686515 -0.20140563964844205 47.07017486572272 -0.1984045410156341 48.30078125 -0.1953125 C49.34953933715815 -0.19895812988283978 50.3982974243163 -0.20260375976562273 51.47883605957031 -0.20635986328125 C54.7884287283714 0.21806482554376316 56.66902041359299 1.1984434368013126 59.344482421875 3.1611328125 C61.45617528138882 7.38451853152776 60.79322454798512 12.828746149499523 60.95703125 17.482421875 C61.03145834641305 19.52177280342744 61.12218940251387 21.559982930678757 61.213623046875 23.5986328125 C61.260673828124936 24.885117187499986 61.3077246093751 26.171601562499973 61.356201171875 27.4970703125 C61.37920288085934 28.087702636718745 61.37920288085934 28.087702636718745 61.49560546875 31.07666015625 C61.345123987833176 34.148038233637635 60.78537528852962 35.53229184109267 59.344482421875 38.1611328125 C51.10386467703347 38.36169348986317 42.86311457083593 38.54536849992542 34.62166404724121 38.70772075653076 C30.794490966249214 38.7836399290652 26.96762193089421 38.86528802596888 23.140869140625 38.960205078125 C19.445236273188016 39.051656142653655 15.749570537194245 39.12782778487957 12.053394317626953 39.19358253479004 C10.645944753649815 39.22127377777241 9.238590811216227 39.254394166786255 7.831401824951172 39.29312705993652 C5.854819108610968 39.34658893518622 3.877693364979791 39.37865988773285 1.900634765625 39.409912109375 C0.7770053100585983 39.434338836669895 -0.3466241455078034 39.458765563964846 -1.504302978515625 39.48393249511719 C-5.177909649948788 39.10762074924435 -7.540286179712325 38.124579749619784 -10.655517578125 36.1611328125 C-12.464080128554428 30.73544516121183 -11.925540175947276 24.901445570248143 -11.968017578125 19.2236328125 C-11.997021484374955 17.935214843749975 -12.026025390625023 16.646796875000007 -12.055908203125 15.3193359375 C-12.064287109374959 14.08248046875002 -12.072666015625032 12.845624999999984 -12.081298828125 11.5712890625 C-12.095881347656245 10.438283691406241 -12.110463867187491 9.305278320312482 -12.12548828125 8.137939453125 C-11.554141781361523 4.519015882662529 -10.486111473866117 3.4028841386559066 -7.655517578125 1.1611328125 C-5.000837095367842 -0.16620742887857887 -2.9728509770616256 0.019399074724105958 0 0 Z " fill="currentColor" transform="translate(998.655517578125,392.8388671875)"/>
<path d="M0 0 C1.2049763488769258 -0.01283523559573041 2.4099526977538517 -0.025670471191403976 3.6514434814453125 -0.0388946533203125 C4.305589828491179 -0.04258811950683139 4.305589828491179 -0.04258811950683139 7.615966796875 -0.061279296875 C7.948422498703053 -0.06331706047058105 7.948422498703053 -0.06331706047058105 9.630849838256836 -0.07362937927246094 C13.150869388295177 -0.09448884686378278 16.670849980481762 -0.1087904563400457 20.19091796875 -0.1181640625 C23.822694116045568 -0.12922232273956524 27.45385649327318 -0.16361464808835535 31.085415840148926 -0.20333576202392578 C33.88131327747158 -0.22951178649788062 36.677064768260266 -0.23785674693885994 39.473073959350586 -0.24144554138183594 C41.46116742190452 -0.24867099512289315 43.44916108356483 -0.27510682694821753 45.43708801269531 -0.3018341064453125 C46.04430442810053 -0.30037132263186095 46.04430442810053 -0.30037132263186095 49.1171875 -0.29296875 C49.65044898986821 -0.2959018707275618 49.65044898986821 -0.2959018707275618 52.34907531738281 -0.3107452392578125 C56.0038153256653 0.3031764089796525 57.67292747888098 1.553691238535805 60.252685546875 4.177001953125 C60.70123421268761 6.929643830034593 60.841689497062134 9.04962818308286 60.740966796875 11.786376953125 C60.733892059326195 12.513186645507801 60.72681732177739 13.239996337890602 60.71952819824219 13.98883056640625 C60.69161284811321 16.30261652305387 60.628889377075666 18.613951937312038 60.565185546875 20.927001953125 C60.54009854076469 22.49858149719961 60.51728605774929 24.07019910980341 60.496826171875 25.641845703125 C60.44179686973587 29.487837155595457 60.355552202885974 33.33200460783007 60.252685546875 37.177001953125 C57.940185546875 38.302001953125 57.940185546875 38.302001953125 55.252685546875 39.177001953125 C52.252685546875 37.177001953125 52.252685546875 37.177001953125 50.252685546875 32.177001953125 C32.76268554687499 31.847001953125016 15.272685546874982 31.517001953124975 -2.747314453125 31.177001953125 C-3.407314453124968 33.487001953125 -4.06731445312505 35.797001953125005 -4.747314453125 38.177001953125 C-6.559814453125 38.864501953125 -6.559814453125 38.864501953125 -8.747314453125 39.177001953125 C-10.35693359375 38.1298828125 -10.35693359375 38.1298828125 -11.747314453125 36.177001953125 C-12.1513671875 33.05419921875 -12.1513671875 33.05419921875 -12.180908203125 29.243408203125 C-12.186150054931659 28.569062347412114 -12.191391906738318 27.894716491699228 -12.196792602539063 27.199935913085938 C-12.203208843815787 25.775231680323486 -12.20188084429276 24.350474446293333 -12.193359375 22.92578125 C-12.184855850382519 20.750093737160228 -12.213597869200612 18.577038921896474 -12.245361328125 16.401611328125 C-12.246973720916003 15.015544404730178 -12.24639507729512 13.629472846106125 -12.243408203125 12.243408203125 C-12.244334716796857 11.614063720703143 -12.244334716796857 11.614063720703143 -12.2490234375 8.42919921875 C-11.662650919258226 4.6281927391885915 -10.743401917347569 3.496114075658909 -7.747314453125 1.177001953125 C-5.072869029938829 -0.16022075846808548 -2.9948185085399928 0.0277047389365066 0 0 Z " fill="currentColor" transform="translate(835.747314453125,392.822998046875)"/>
<path d="M0 0 C1.2249215698242324 -0.009456481933568739 2.449843139648465 -0.01891296386719432 3.711883544921875 -0.028656005859375 C5.050275903636702 -0.023285094951006613 6.388665318642438 -0.017131844244659078 7.72705078125 -0.01025390625 C9.100841822637449 -0.012275298635017862 10.474631817722639 -0.0151872829990225 11.848419189453125 -0.018951416015625 C14.728477074292414 -0.02337472508980909 17.608255822980254 -0.01694586030185974 20.48828125 -0.0029296875 C24.172666096248463 0.014130470544500895 27.856393789273056 0.004341902320504687 31.540754318237305 -0.013647079467773438 C34.37872219058772 -0.024512508321095083 37.21653556039121 -0.021025477756950295 40.054508209228516 -0.013263702392578125 C41.41242679162576 -0.0112676227178099 42.770359570570236 -0.013700139438071801 44.12826156616211 -0.020702362060546875 C46.0308173242413 -0.028357716805317068 47.93342245501594 -0.014612346346154936 49.8359375 0 C50.91720916748045 0.002386779785183535 51.9984808349609 0.004773559570310226 53.112518310546875 0.007232666015625 C56.464875899517324 0.4423778768748434 58.343993273582896 1.3880577778139127 61.04736328125 3.38818359375 C63.811807815246084 8.399261298878798 63.63680795947607 13.813721065383561 63.04736328125 19.38818359375 C61.48486328125 22.26318359375 61.48486328125 22.26318359375 60.04736328125 24.38818359375 C60.44736328124998 28.788183593749977 60.44736328124998 28.788183593749977 62.04736328125 30.38818359375 C62.29736328125 33.82568359375 62.29736328125 33.82568359375 62.04736328125 37.38818359375 C59.04736328125 39.38818359375 59.04736328125 39.38818359375 56.67236328125 39.51318359375 C53.04488481953979 37.95854996730276 52.01581156080874 35.58470162812432 50.16064453125 32.20068359375 C49.04736328125 30.38818359375 49.04736328125 30.38818359375 47.04736328125 29.38818359375 C45.53571936000185 29.298406311926954 44.020161495151 29.270609266974873 42.505859375 29.274658203125 C42.035447235107426 29.274695968627952 42.035447235107426 29.274695968627952 39.654876708984375 29.274887084960938 C39.14600418090822 29.277467727661133 39.14600418090822 29.277467727661133 36.57080078125 29.29052734375 C36.05060867309567 29.291234817504858 36.05060867309567 29.291234817504858 33.418121337890625 29.294815063476563 C30.086173072650922 29.300424930130816 26.75429133083321 29.312979119891907 23.42236328125 29.32568359375 C21.16715591646698 29.33069732211402 18.911947501357417 29.335260449102805 16.65673828125 29.33935546875 C11.120254208021379 29.350397570973087 5.583820033630445 29.367668846919287 0.04736328125 29.38818359375 C-0.6126367187499682 32.35818359375003 -1.27263671875005 35.32818359375 -1.95263671875 38.38818359375 C-2.612636718749968 38.55318359375002 -2.612636718749968 38.55318359375002 -5.95263671875 39.38818359375 C-6.942636718750009 38.72818359375003 -7.932636718750018 38.06818359375001 -8.95263671875 37.38818359375 C-9.257183291937167 34.79877156675792 -9.372810293099064 32.452172813636196 -9.35107421875 29.86083984375 C-9.353944396972679 29.11611923217771 -9.356814575195358 28.371398620605476 -9.359771728515625 27.604110717773438 C-9.36181443509031 26.02797689480815 -9.356270079711408 24.451817840927333 -9.34375 22.875732421875 C-9.327720477192429 20.4632892393289 -9.343578586171475 18.05252708530537 -9.36279296875 15.64013671875 C-9.360810128240018 14.109534060192402 -9.356965605466485 12.578932448463206 -9.35107421875 11.04833984375 C-9.357146911621044 10.32638931274414 -9.363219604492201 9.604438781738281 -9.369476318359375 8.860610961914063 C-9.299844050142724 3.897476496163506 -9.299844050142724 3.897476496163506 -7.8004150390625 1.6980743408203125 C-5.1653261361475415 -0.16994117472717107 -3.212984224566185 0.007102736348826966 0 0 Z " fill="currentColor" transform="translate(914.95263671875,392.61181640625)"/>
<path d="M0 0 C1.2249971008300236 -0.006304321289064774 2.449994201660161 -0.012608642578129547 3.7121124267578125 -0.01910400390625 C5.055716376499959 -0.015523124412993639 6.399319023294424 -0.011420890524448168 7.742919921875 -0.0068359375 C9.118139329539986 -0.008183103331759867 10.493358273262402 -0.010124066908986151 11.868576049804688 -0.01263427734375 C14.754552434506081 -0.015586095676269451 17.640405162657885 -0.011288134431481467 20.5263671875 -0.001953125 C24.218501517907953 0.009409473439404792 27.910344054341067 0.002902815210575227 31.60246753692627 -0.009098052978515625 C34.44469886032164 -0.01634261294185535 37.28686163130715 -0.014016283731336898 40.12909507751465 -0.00884246826171875 C41.4898043031078 -0.007511472380485884 42.850519822595174 -0.009134375911287407 44.21122169494629 -0.01380157470703125 C46.118677765809366 -0.018905597858690726 48.02615572435661 -0.00974123476208888 49.93359375 0 C50.47573768615723 0.000795593261727845 50.47573768615723 0.000795593261727845 53.21931457519531 0.00482177734375 C56.27848667236003 0.26894214514942405 58.42971849818764 0.8731638643699853 61.160888671875 2.2587890625 C64.91020605922733 7.042400901535814 64.51822901764513 12.322447988979718 64.559326171875 18.1376953125 C64.11552583325113 21.614131298386667 63.24974680353125 23.46874146411409 61.160888671875 26.2587890625 C57.77934897497903 28.513148860430647 56.556199961879315 28.52507633018206 52.587890625 28.57763671875 C52.01741249084478 28.5875715637207 52.01741249084478 28.5875715637207 49.13044738769531 28.637847900390625 C48.514786605834956 28.643623504638697 48.514786605834956 28.643623504638697 45.399169921875 28.6728515625 C44.138240203857436 28.69221771240234 42.87731048583987 28.71158386230468 41.57817077636719 28.731536865234375 C38.22941285770776 28.781226431118625 34.88076547740502 28.822483415256556 31.5318603515625 28.85968017578125 C28.113180111215343 28.89971986904277 24.69466706125297 28.95081231802493 21.276123046875 29.0009765625 C14.571152364336058 29.097114668564757 7.866108928166909 29.182140519643042 1.160888671875 29.2587890625 C0.5008886718750318 32.22878906250003 -0.15911132812505002 35.1987890625 -0.839111328125 38.2587890625 C-1.4991113281249682 38.42378906250002 -1.4991113281249682 38.42378906250002 -4.839111328125 39.2587890625 C-5.829111328125009 38.59878906250003 -6.819111328125018 37.93878906250001 -7.839111328125 37.2587890625 C-8.130997371984222 34.586835506910234 -8.235253914669102 32.149997587881785 -8.202392578125 29.4775390625 C-8.2028910827637 28.708250732421902 -8.203389587402398 27.938962402343748 -8.203903198242188 27.1463623046875 C-8.201561383728631 25.518935330508043 -8.19182645674573 23.891504829070357 -8.17529296875 22.26416015625 C-8.151703609720698 19.76855188450577 -8.154730310116406 17.274011676251234 -8.161376953125 14.7783203125 C-8.15580019692004 13.19888683880049 -8.1486903304733 11.61945787890238 -8.139892578125 10.0400390625 C-8.140803985595653 9.291053466796882 -8.14171539306642 8.542067871093764 -8.142654418945313 7.7703857421875 C-8.049519981103913 0.9883487704165645 -6.576421600910635 0.009672153486178559 0 0 Z " fill="currentColor" transform="translate(750.839111328125,392.7412109375)"/>
<path d="M0 0 C0.6489624023437273 -0.004964904785140334 1.2979248046875114 -0.009929809570337511 1.966552734375 -0.015045166015625 C4.116465799434309 -0.029667727748801553 6.2663051147866895 -0.036468377057758516 8.416259765625 -0.0419921875 C9.908370998321743 -0.047742928724915146 11.400482204050093 -0.05350067122361679 12.892593383789063 -0.05926513671875 C16.022311857819545 -0.06977494975723175 19.152004639207405 -0.07561794655441645 22.28173828125 -0.0791015625 C26.29472397203716 -0.08459072677635504 30.307371111462942 -0.10862748324871063 34.320250511169434 -0.13707351684570313 C37.40258278217061 -0.15568300401838542 40.48483316250929 -0.1609045489602181 43.567216873168945 -0.16243743896484375 C45.04682328779393 -0.16546761215641936 46.5264281389118 -0.1735084398202389 48.00597953796387 -0.18662261962890625 C50.07456230892575 -0.20365101351097792 52.14231335805141 -0.20181156677836043 54.2109375 -0.1953125 C55.38849105834959 -0.19895812988283978 56.56604461669923 -0.20260375976562273 57.77928161621094 -0.20635986328125 C60.670166015625 0.1611328125 60.670166015625 0.1611328125 62.57386779785156 1.68341064453125 C62.754757003784164 1.9272348022461188 62.754757003784164 1.9272348022461188 63.670166015625 3.1611328125 C63.01016601562503 4.811132812499977 62.35016601562501 6.461132812500011 61.670166015625 8.1611328125 C41.540166015625005 8.491132812499984 21.41016601562501 8.821132812500025 0.670166015625 9.1611328125 C0.3401660156250159 10.151132812500009 0.010166015624974989 11.141132812500018 -0.329833984375 12.1611328125 C0.00016601562498408384 12.821132812500025 0.330166015625025 13.481132812499993 0.670166015625 14.1611328125 C1.4174093627929665 14.171440277099634 2.164652709960933 14.181747741699212 2.934539794921875 14.192367553710938 C9.968312703744516 14.290247281430823 17.001999415424848 14.392748038741104 24.035627365112305 14.500472068786621 C27.651894214615368 14.555693355915707 31.268169163885773 14.609112057239031 34.884521484375 14.658447265625 C38.372917232772636 14.706102590498233 41.86121371122613 14.758445777479494 45.349491119384766 14.81407356262207 C47.33148789335155 14.844445132785893 49.313557569279965 14.86993068390484 51.295623779296875 14.895370483398438 C52.49671783447263 14.915315704345687 53.69781188964845 14.935260925292994 54.935302734375 14.955810546875 C55.99675506591797 14.971354827880873 57.05820739746093 14.986899108886746 58.151824951171875 15.002914428710938 C60.670166015625 15.1611328125 60.670166015625 15.1611328125 62.670166015625 16.1611328125 C63.76053529408489 19.134867208299795 63.708807678027824 20.04520782529147 62.670166015625 23.1611328125 C60.003565442739216 24.494433098942864 57.921278586108656 24.322727398287896 54.935302734375 24.366455078125 C53.73420867919924 24.38640029907225 52.533114624023426 24.406345520019556 51.295623779296875 24.426895141601563 C49.99351959228517 24.44360763549804 48.69141540527346 24.460320129394518 47.349853515625 24.4775390625 C46.00749063421296 24.498109059875162 44.66513422558364 24.519105545967307 43.322784423828125 24.540512084960938 C39.78828163767042 24.595728118259387 36.25372044239606 24.645139395068043 32.7191162109375 24.693359375 C29.112902797380684 24.743577855912008 25.506774290803946 24.79926210064616 21.900634765625 24.8544921875 C14.823885527940888 24.962067984450016 7.7470601707006495 25.063514230474368 0.670166015625 25.1611328125 C0.670166015625 26.481132812499993 0.670166015625 27.801132812499986 0.670166015625 29.1611328125 C1.4151887512206827 29.166999053955067 2.160211486816422 29.172865295410134 2.9278106689453125 29.178909301757813 C9.946693906843052 29.23679720542225 16.965254988254287 29.308850945572658 23.98381519317627 29.39684772491455 C27.592214789013497 29.44158831980593 31.20050052567649 29.480835858612693 34.80908203125 29.507568359375 C38.29116186840673 29.53356522181423 41.77280440767606 29.5739407625569 45.25461387634277 29.624319076538086 C47.230418008658035 29.6491404568269 49.2063912151508 29.65904220344288 51.18232727050781 29.668777465820313 C52.38334579467772 29.688571624755866 53.58436431884763 29.70836578369142 54.82177734375 29.728759765625 C55.35139320373537 29.734311294555653 55.35139320373537 29.734311294555653 58.03157043457031 29.762405395507813 C60.98037910022168 30.208010197888825 61.879954515567135 30.83676413591951 63.670166015625 33.1611328125 C63.01016601562503 34.81113281249998 62.35016601562501 36.46113281250001 61.670166015625 38.1611328125 C52.708263878781395 38.230554889477844 43.74645388399125 38.283904172052246 34.78434181213379 38.316569328308105 C30.62313993006063 38.33224470041171 26.46212160995725 38.353516730588865 22.301025390625 38.387451171875 C18.287491495365828 38.41997845488919 14.274134473745619 38.437971718097344 10.260478973388672 38.44576454162598 C8.727005909742502 38.45132004163611 7.193542838117878 38.46216825207944 5.660144805908203 38.478322982788086 C3.516948555575766 38.50000995536982 1.3744889720256879 38.5031035296152 -0.768798828125 38.501708984375 C-1.3794670104980469 38.505039901733426 -1.3794670104980469 38.505039901733426 -4.469818115234375 38.52189636230469 C-5.413623352050763 38.40284439086912 -6.357428588867208 38.28379241943361 -7.329833984375 38.1611328125 C-9.794408734279102 34.46427068764382 -9.574631876880176 32.60013943251488 -9.560302734375 28.1923828125 C-9.559844512939435 27.515665283203134 -9.559386291503927 26.838947753906268 -9.558914184570313 26.1417236328125 C-9.555896909054184 24.712791378145937 -9.548026243860306 23.28386226427085 -9.53564453125 21.85498046875 C-9.517400916083375 19.66915212358589 -9.515134866069673 17.48374807356214 -9.515380859375 15.2978515625 C-9.477541745989356 4.604256097343068 -9.477541745989356 4.604256097343068 -8.329833984375 1.1611328125 C-5.512902574143368 -0.24733289261581604 -3.150584459869492 0.018280904451444258 0 0 Z " fill="currentColor" transform="translate(349.329833984375,392.8388671875)"/>
<path d="M0 0 C0.3244812011719205 -0.002555465698264925 0.3244812011719205 -0.002555465698264925 1.966552734375 -0.0154876708984375 C4.116548319600952 -0.02941294420253371 6.266224384013867 -0.02842472098387816 8.416259765625 -0.026123046875 C9.908372190852788 -0.030008512940639775 11.400483509390142 -0.03434287117738677 12.892593383789063 -0.0391082763671875 C16.022344794140963 -0.046576881094210876 19.1519834166927 -0.04627472464784432 22.28173828125 -0.041015625 C26.29475500751323 -0.035221462342406085 30.307310124394235 -0.05214715001488912 34.320250511169434 -0.07536029815673828 C37.40260014589353 -0.09008482121487305 40.48483830131113 -0.09097109155715088 43.567216873168945 -0.08785057067871094 C45.04681372645496 -0.08836447864024422 46.52641670878279 -0.09361525934070869 48.00597953796387 -0.10366249084472656 C50.074604758114674 -0.11598477003616381 52.14232698877504 -0.10926164991826681 54.2109375 -0.09765625 C55.3884910583497 -0.09828567504882813 56.56604461669917 -0.09891510009765625 57.77928161621094 -0.0995635986328125 C60.670166015625 0.274658203125 60.670166015625 0.274658203125 62.58558654785156 1.6651153564453125 C63.670166015625 3.274658203125 63.670166015625 3.274658203125 63.482666015625 5.399658203125 C62.670166015625 7.274658203125 62.670166015625 7.274658203125 60.670166015625 8.274658203125 C58.76108415590352 8.39459900488123 56.84794353113966 8.451971084696936 54.935302734375 8.47998046875 C53.73420867919913 8.49992568969725 52.53311462402348 8.519870910644556 51.295623779296875 8.540420532226563 C49.99351959228511 8.55713302612304 48.69141540527335 8.573845520019518 47.349853515625 8.591064453125 C46.0074906342129 8.611634450500162 44.66513422558364 8.632630936592307 43.322784423828125 8.654037475585938 C39.78828163767048 8.709253508884387 36.253720442396116 8.758664785693043 32.7191162109375 8.806884765625 C29.112902797380684 8.857103246537008 25.50677429080406 8.91278749127116 21.900634765625 8.968017578125 C14.823885527941002 9.075593375075016 7.747060170700706 9.177039621099368 0.670166015625 9.274658203125 C0.670166015625 10.924658203124977 0.670166015625 12.574658203125011 0.670166015625 14.274658203125 C1.4151887512207395 14.280524444580067 2.160211486816479 14.286390686035134 2.9278106689453125 14.292434692382813 C9.946693906843166 14.35032259604725 16.9652549882544 14.422376336197658 23.98381519317627 14.51037311553955 C27.592214789013497 14.55511371043093 31.20050052567649 14.594361249237693 34.80908203125 14.62109375 C38.29116186840679 14.647090612439229 41.77280440767595 14.687466153181902 45.25461387634277 14.737844467163086 C47.230418008658035 14.762665847451899 49.20639121515069 14.77256759406788 51.18232727050781 14.782302856445313 C52.38334579467778 14.802097015380866 53.58436431884775 14.82189117431642 54.82177734375 14.84228515625 C55.35139320373537 14.847836685180653 55.35139320373537 14.847836685180653 58.03157043457031 14.875930786132813 C60.670166015625 15.274658203125 60.670166015625 15.274658203125 62.54740905761719 16.637619018554688 C63.670166015625 18.274658203125 63.670166015625 18.274658203125 63.482666015625 20.899658203125 C62.670166015625 23.274658203125 62.670166015625 23.274658203125 60.670166015625 24.274658203125 C58.76108415590352 24.39459900488123 56.84794353113966 24.451971084696936 54.935302734375 24.47998046875 C53.73420867919913 24.49992568969725 52.53311462402348 24.519870910644556 51.295623779296875 24.540420532226563 C49.99351959228511 24.55713302612304 48.69141540527335 24.573845520019518 47.349853515625 24.591064453125 C46.0074906342129 24.611634450500162 44.66513422558364 24.632630936592307 43.322784423828125 24.654037475585938 C39.78828163767048 24.709253508884387 36.253720442396116 24.758664785693043 32.7191162109375 24.806884765625 C29.112902797380684 24.857103246537008 25.50677429080406 24.91278749127116 21.900634765625 24.968017578125 C14.823885527941002 25.075593375075016 7.747060170700706 25.177039621099368 0.670166015625 25.274658203125 C0.670166015625 26.594658203124993 0.670166015625 27.914658203124986 0.670166015625 29.274658203125 C1.4151887512207395 29.28274505615235 2.160211486816479 29.2908319091797 2.9278106689453125 29.299163818359375 C9.946627922774042 29.37708267887416 16.96525151672654 29.46436499396208 23.98381519317627 29.562185287475586 C27.592198309474043 29.612145789238184 31.200552187056246 29.65847564574426 34.80908203125 29.696533203125 C38.291077295168634 29.73338944207245 41.772827789614894 29.77974990659004 45.25461387634277 29.832721710205078 C47.23043715235781 29.86029206561659 49.206390017064905 29.878000700588927 51.18232727050781 29.895599365234375 C52.38334579467778 29.915469055175777 53.58436431884775 29.93533874511718 54.82177734375 29.955810546875 C55.35139320373537 29.962472381591795 55.35139320373537 29.962472381591795 58.03157043457031 29.996185302734375 C60.670166015625 30.274658203125 60.670166015625 30.274658203125 63.670166015625 32.274658203125 C62.795166015625 37.149658203125 62.795166015625 37.149658203125 61.670166015625 38.274658203125 C59.63141196177321 38.40371744982599 57.588228285046625 38.46320172888238 55.545654296875 38.495849609375 C54.23404327392586 38.51902252197266 52.9224322509765 38.54219543457032 51.571075439453125 38.566070556640625 C50.127546762268594 38.58638032469344 48.68401431853499 38.606423878902774 47.240478515625 38.626220703125 C45.76935389174605 38.649327292199985 44.298233697879596 38.67271753671429 42.827117919921875 38.696380615234375 C39.738543699658294 38.74490591877725 36.64994277798223 38.78982325695381 33.561279296875 38.832275390625 C29.600969429635825 38.88701732575453 25.64086851288107 38.95086138207853 21.680742263793945 39.0174503326416 C18.640504326384416 39.067527995531634 15.600208242875851 39.11265296189191 12.559871673583984 39.15629196166992 C11.099797550106814 39.177868936645325 9.639745792311942 39.201017994686254 8.17972183227539 39.22575759887695 C6.1377143023596545 39.25963636597987 4.095588077930643 39.286117830522585 2.053466796875 39.312255859375 C0.8906619262695585 39.32922515869143 -0.27214294433588293 39.3461944580078 -1.470184326171875 39.363677978515625 C-4.329833984375 39.274658203125 -4.329833984375 39.274658203125 -7.329833984375 38.274658203125 C-8.85247507750978 35.229376016855554 -8.492689358297866 32.05320573946972 -8.497802734375 28.712158203125 C-8.50113113403313 27.96506591796873 -8.504459533691488 27.217973632812516 -8.507888793945313 26.4482421875 C-8.512953644820527 24.867926191424942 -8.515297255534279 23.287599494849474 -8.51513671875 21.707275390625 C-8.517325324383819 19.2842457756484 -8.53549099406223 16.86166984779834 -8.554443359375 14.438720703125 C-8.557376902542273 12.904868098204133 -8.559361959975831 11.371013324784656 -8.560302734375 9.837158203125 C-8.567488250732367 9.11004638671875 -8.574673767089735 8.3829345703125 -8.582077026367188 7.6337890625 C-8.550038687442793 0.6140893759253458 -6.6748127808441495 0.02613406973335941 0 0 Z " fill="currentColor" transform="translate(1159.329833984375,392.725341796875)"/>
<path d="M0 0 C4.555555555555657 0.5555555555555429 4.555555555555657 0.5555555555555429 6 2 C6.158252583932153 3.997821264693073 6.251191713375647 6.0008883393976475 6.31640625 8.00390625 C6.3373535156249545 8.611376953124989 6.3373535156249545 8.611376953124989 6.443359375 11.685546875 C6.482675781250009 12.964941406249977 6.521992187500018 14.244335937500011 6.5625 15.5625 C6.605683593749973 16.845761718749998 6.648867187499945 18.129023437499995 6.693359375 19.451171875 C6.799847999170879 22.6339985307726 6.901859620821142 25.81690673704992 7 29 C14.387281018221529 29.025266924644484 21.774550977726904 29.04283160416975 29.161865234375 29.054931640625 C31.677168949286624 29.05997363319932 34.19246971666189 29.066807025512105 36.707763671875 29.075439453125 C40.314297747650244 29.087510939497918 43.920793225187936 29.093229488266445 47.52734375 29.09765625 C48.65961898803721 29.10281753540039 49.79189422607419 29.10797882080078 50.95848083496094 29.113296508789063 C51.99948440551748 29.11337203979491 53.040487976074246 29.11344757080076 54.113037109375 29.113525390625 C55.03459091186528 29.115746002197284 55.95614471435556 29.11796661376951 56.90562438964844 29.120254516601563 C59 29 59 29 60 28 C60.133616117818065 26.18274562686122 60.2034859754699 24.360724186807545 60.24609375 22.5390625 C60.27896484374992 21.427890624999975 60.311835937500064 20.316718750000007 60.345703125 19.171875 C60.40669644171999 16.81519706034942 60.46401315956632 14.458420979077232 60.517578125 12.1015625 C60.55173828124998 10.987812500000018 60.585898437499964 9.87406249999998 60.62109375 8.7265625 C60.633621826171975 8.213918457031241 60.633621826171975 8.213918457031241 60.697021484375 5.61962890625 C61 3 61 3 63 0 C65.5 -0.3125 65.5 -0.3125 68 0 C71.4879375842338 3.487937584233748 70.33876410870448 8.639489323286512 70.37109375 13.35546875 C70.37093261718746 14.097163085937495 70.37077148437493 14.838857421874991 70.37060546875 15.60302734375 C70.37497064131276 17.85982155869499 70.41125798758503 20.114646872431138 70.44921875 22.37109375 C70.45508860494897 23.8072849835861 70.45905687000095 25.243485502418366 70.4609375 26.6796875 C70.46915527343754 27.986635742187502 70.47737304687507 29.293583984375005 70.48583984375 30.64013671875 C69.90538551004943 34.65431387472336 69.164668162937 35.55756970325848 66 38 C63.1162109375 38.5079345703125 63.1162109375 38.5079345703125 59.734375 38.517578125 C58.466259765624955 38.53018676757813 57.19814453124991 38.54279541015626 55.8916015625 38.5557861328125 C54.51106204818052 38.54862629935144 53.13052761022777 38.54042230677749 51.75 38.53125 C50.33040094219041 38.533945622885994 48.91080368561734 38.537828631353136 47.4912109375 38.5428466796875 C44.518701059243995 38.54873857882956 41.54667258541713 38.54018954242957 38.57421875 38.521484375 C34.767412131513765 38.49869399969157 30.961733508413317 38.51181887782218 27.15496826171875 38.53577423095703 C24.224360437380483 38.55024113913635 21.294019256074762 38.54562235113991 18.3634033203125 38.53526306152344 C16.960000263569555 38.532598192610465 15.556572854432488 38.535857170809095 14.1531982421875 38.54518127441406 C12.190678652288398 38.55535940642841 10.228073981780653 38.53709040363077 8.265625 38.517578125 C7.149619140624964 38.514395751953145 6.033613281249927 38.511213378906234 4.8837890625 38.5079345703125 C1.3324186338663822 37.88241593022002 0.14726107698879787 36.853351248080685 -2 34 C-2.48583984375 30.64013671875 -2.48583984375 30.64013671875 -2.4609375 26.6796875 C-2.46002105712887 25.979817199707043 -2.4591046142577397 25.279946899414085 -2.458160400390625 24.558868408203125 C-2.4521348649225274 23.08458645541492 -2.436420000786711 21.610316150657468 -2.41162109375 20.13623046875 C-2.3750084250527834 17.875520218923384 -2.370602553740582 15.616445132483818 -2.37109375 13.35546875 C-2.295272345779722 2.295272345779665 -2.295272345779722 2.295272345779665 0 0 Z " fill="currentColor" transform="translate(1071,393)"/>
<path d="M0 0 C3.9132379665141457 1.7879071560333273 7.63462835849441 3.878011382466127 11.375 6 C12.384335937499998 6.5594531250000045 13.393671874999995 7.118906250000009 14.43359375 7.6953125 C21.799724544072944 11.799724544072944 21.799724544072944 11.799724544072944 23 13 C27.76460285848674 13.439913616195497 30.136143088583196 12.684460772960392 34 9.9375 C38.32889059749664 7.035781268435926 42.68031233510379 4.435819317681251 47.3125 2.0625 C48.443007812500014 1.4759765625000227 49.57351562500003 0.8894531249999886 50.73828125 0.28515625 C54.10258437757744 -1.0404194733209238 56.42309524138045 -1.2651563285511997 60 -1 C60.164999999999964 -0.339999999999975 60.164999999999964 -0.339999999999975 61 3 C55.670689131084146 6.722058384639638 50.19229068187178 10.13145143914835 44.5625 13.375 C43.94745605468751 13.732714843749989 43.332412109375014 14.090429687499977 42.69873046875 14.458984375 C38.24204663133531 17 38.24204663133531 17 36 17 C36.181640625 18.806640625 36.181640625 18.806640625 37 21 C39.208984375 22.583984375 39.208984375 22.583984375 42.09375 24.09375 C43.12371093749999 24.649335937499984 44.153671874999986 25.204921875000025 45.21484375 25.77734375 C46.298945312499995 26.345820312499995 47.38304687499999 26.91429687499999 48.5 27.5 C50.641890926546694 28.623155646381804 52.77768063906768 29.758048004303078 54.90625 30.90625 C55.85822265625001 31.404472656249993 56.810195312500014 31.902695312499986 57.791015625 32.416015625 C60 34 60 34 60.880859375 36.130859375 C60.92017578125001 36.747675781249995 60.95949218750002 37.36449218749999 61 38 C60 39 60 39 57.140625 39.4296875 C51.36405281897089 39.34413050651182 46.61514248850773 35.9298380837439 41.75 33.125 C40.75742187499998 32.569414062500016 39.76484375000001 32.01382812500003 38.7421875 31.44140625 C35.08630126743782 29.385589466106637 31.49075914408087 27.32717276272058 28 25 C23.67945674388585 25.311867609906756 20.59684839141545 26.50921829983912 16.890625 28.6875 C16.431074218749984 28.95433593749999 16.431074218749984 28.95433593749999 14.10546875 30.3046875 C13.163164062500016 30.864140625000005 12.220859374999975 31.42359375000001 11.25 32 C9.359454371718527 33.10430256079968 7.468833174646761 34.20847576261809 5.578125 35.3125 C5.162563476562525 35.55806640625002 5.162563476562525 35.55806640625002 3.0595703125 36.80078125 C-0.8435036388441404 39.0734103691326 -3.4562157340682234 39.08414415307283 -8 39 C-8.329999999999984 37.68000000000001 -8.660000000000025 36.360000000000014 -9 35 C-1.083403632591569 30.184374559917444 6.942700545815001 25.574316981194386 15 21 C14.83984375 19.2109375 14.83984375 19.2109375 14 17 C11.62890625 15.2890625 11.62890625 15.2890625 8.5625 13.625 C7.484843749999982 13.023007812499998 6.4071875000000205 12.421015624999995 5.296875 11.80078125 C4.7528906250000205 11.503652343749991 4.7528906250000205 11.503652343749991 2 10 C0.09659094489347808 8.951131921204421 -1.8000723344674725 7.889861167464403 -3.6875 6.8125 C-4.495742187500014 6.3651953125000205 -5.303984375000027 5.917890624999984 -6.13671875 5.45703125 C-8.329683872081375 3.742196888288561 -8.657086252706279 2.7142494912911275 -9 0 C-5.88044587271844 -1.5597770636408086 -3.230507270928797 -0.9283231536859944 0 0 Z " fill="currentColor" transform="translate(434,393)"/>

<path d="M0 0 C2.375 0.8125 2.375 0.8125 3.375 2.8125 C3.4478951294705666 4.602804379797362 3.4586613719161505 6.39583717777009 3.4375 8.1875 C3.429765624999959 9.25484375000002 3.422031250000032 10.322187499999984 3.4140625 11.421875 C3.3880208333333712 13.682291666666686 3.3619791666666288 15.942708333333314 3.3359375 18.203125 C3.328203124999959 19.27046875000002 3.320468750000032 20.337812499999984 3.3125 21.4375 C3.3008984374999955 22.419765625000025 3.289296874999991 23.402031249999993 3.27734375 24.4140625 C3.375 26.8125 3.375 26.8125 4.375 28.8125 C5.1200227355957395 28.818366241455067 5.865045471191365 28.824232482910134 6.6326446533203125 28.830276489257813 C13.651527891218052 28.88816439292225 20.670088972629287 28.960218133072658 27.68864917755127 29.04821491241455 C31.297048773388497 29.09295550730593 34.90533451005149 29.132203046112693 38.513916015625 29.158935546875 C41.995995852781675 29.18493240931423 45.47763839205106 29.2253079500569 48.95944786071777 29.275686264038086 C50.935251993033035 29.3005076443269 52.9112251995258 29.31040939094288 54.88716125488281 29.320144653320313 C56.08817977905278 29.339938812255866 57.28919830322263 29.35973297119142 58.526611328125 29.380126953125 C59.05622718811037 29.385678482055653 59.05622718811037 29.385678482055653 61.73640441894531 29.413772583007813 C64.68521308459674 29.859377385388825 65.58478849994219 30.48813132341951 67.375 32.8125 C66.75 35.25 66.75 35.25 65.375 37.8125 C61.30297966493322 38.793890670320195 57.332911307934296 38.94669426675313 53.15771484375 38.9736328125 C52.55376388549803 38.97843658447266 52.55376388549803 38.97843658447266 49.497406005859375 39.00274658203125 C48.20662139892579 39.00699645996093 46.915836791992206 39.01124633789061 45.5859375 39.015625 C45.25469186782834 39.01703868865968 45.25469186782834 39.01703868865968 43.57838821411133 39.024192810058594 C40.07894753309256 39.039119256791025 36.57954745453969 39.04839253613238 33.080078125 39.052734375 C29.470851591333826 39.05823857542413 25.861998584423418 39.082325527839316 22.25288963317871 39.1107063293457 C19.46990868501564 39.12933206019659 16.68701826902884 39.1345380486149 13.903980255126953 39.136070251464844 C11.92750939842449 39.14055897538577 9.951087032543569 39.15919384161606 7.974700927734375 39.17803955078125 C6.773103332519554 39.17503845214844 5.571505737304733 39.172037353515634 4.33349609375 39.1689453125 C3.2768173217773438 39.17259094238284 2.2201385498046875 39.17623657226562 1.131439208984375 39.17999267578125 C-2.0252002698192655 38.759144690176754 -3.4014471996556495 38.07145506759167 -5.625 35.8125 C-6.019306824685032 33.20144050106359 -6.163152774394234 31.015530792633285 -6.12109375 28.40625 C-6.12254898071285 27.685140380859366 -6.124004211425813 26.964030761718732 -6.1255035400390625 26.2210693359375 C-6.123845116749976 24.697956906002844 -6.112289847368061 23.17482762763342 -6.091552734375 21.65185546875 C-6.062600160041939 19.320564987580156 -6.070941962070947 16.991549081880066 -6.083984375 14.66015625 C-6.0777466233083715 13.179676448814632 -6.069355386469397 11.699203828541954 -6.05859375 10.21875 C-6.0615293884277435 9.521810302734366 -6.064465026855487 8.824870605468732 -6.0674896240234375 8.1068115234375 C-6.011107376954897 5.214059792138983 -5.930439403821765 3.254985025633289 -4.261962890625 0.837890625 C-2.625 -0.1875 -2.625 -0.1875 0 0 Z " fill="currentColor" transform="translate(612.625,393.1875)"/>

<path d="M0 0 C0.6489624023437273 -0.004964904785140334 1.2979248046874545 -0.009929809570337511 1.966552734375 -0.015045166015625 C4.116465799434309 -0.029667727748801553 6.266305114786633 -0.036468377057758516 8.416259765625 -0.0419921875 C9.908370998321743 -0.047742928724915146 11.400482204050036 -0.05350067122361679 12.892593383789063 -0.05926513671875 C16.022311857819545 -0.06977494975723175 19.152004639207462 -0.07561794655441645 22.28173828125 -0.0791015625 C26.294723972037218 -0.08459072677635504 30.307371111463 -0.10862748324871063 34.320250511169434 -0.13707351684570313 C37.40258278217061 -0.15568300401838542 40.48483316250929 -0.1609045489602181 43.567216873168945 -0.16243743896484375 C45.04682328779393 -0.16546761215641936 46.5264281389118 -0.1735084398202389 48.00597953796387 -0.18662261962890625 C50.07456230892569 -0.20365101351097792 52.14231335805141 -0.20181156677836043 54.2109375 -0.1953125 C55.38849105834959 -0.19895812988283978 56.56604461669917 -0.20260375976562273 57.77928161621094 -0.20635986328125 C60.670166015625 0.1611328125 60.670166015625 0.1611328125 62.58949279785156 1.55059814453125 C63.670166015625 3.1611328125 63.670166015625 3.1611328125 63.420166015625 5.2861328125 C62.670166015625 7.1611328125 62.670166015625 7.1611328125 61.670166015625 8.1611328125 C59.53771119359703 8.30752213856988 57.40071264523897 8.38859093162597 55.263916015625 8.4423828125 C53.963251953124995 8.479765625000027 52.66258789062499 8.517148437499998 51.322509765625 8.5556640625 C49.24196992265479 8.609339528271278 47.1613921924652 8.661352209339952 45.080810546875 8.71337890625 C43.07924230602839 8.765016998144006 41.07782377176193 8.822359695623902 39.076416015625 8.8798828125 C38.474746093750014 8.895029296875009 38.474746093750014 8.895029296875009 35.429931640625 8.9716796875 C32.670166015625 9.1611328125 32.670166015625 9.1611328125 31.670166015625 10.1611328125 C31.60720392273697 11.895691484928534 31.61083651486831 13.632757791626716 31.642822265625 15.3681640625 C31.655068359375036 16.429707031250018 31.66731445312496 17.49124999999998 31.679931640625 18.5849609375 C31.714906571677147 20.832424099553634 31.753926613936187 23.07982818523766 31.797119140625 25.3271484375 C31.808076171874973 26.392558593749982 31.819033203124945 27.45796875000002 31.830322265625 28.5556640625 C31.8471606445313 29.533820800781257 31.863999023437486 30.511977539062514 31.88134765625 31.519775390625 C31.664144916012674 34.23644180291109 31.06055988808771 35.84426687014974 29.670166015625 38.1611328125 C27.690166015624982 38.1611328125 25.710166015624964 38.1611328125 23.670166015625 38.1611328125 C22.301772390107203 35.42434556146435 22.45381783969242 33.11848857684612 22.353759765625 30.0595703125 C22.311865234374977 28.84785156250001 22.269970703124955 27.636132812500023 22.226806640625 26.3876953125 C22.18749023437499 25.116679687499982 22.148173828124982 23.84566406250002 22.107666015625 22.5361328125 C22.064482421875027 21.257382812499998 22.021298828125055 19.978632812499995 21.976806640625 18.6611328125 C21.870467158214296 15.494579336270931 21.76843768590595 12.327945286956492 21.670166015625 9.1611328125 C20.802143554687518 9.141313476562516 19.934121093750036 9.121494140624975 19.039794921875 9.10107421875 C15.822903345668124 9.023034093392369 12.606395568953644 8.93634399832024 9.389892578125 8.84375 C7.9970802952406075 8.805439545598972 6.604168369331546 8.77059022251774 5.211181640625 8.7392578125 C3.2103029382282102 8.693653739510921 1.2097445555573358 8.634616581012835 -0.790771484375 8.5751953125 C-1.9952392578125 8.543774414062511 -3.19970703125 8.512353515625023 -4.440673828125 8.47998046875 C-7.329833984375 8.1611328125 -7.329833984375 8.1611328125 -9.329833984375 6.1611328125 C-9.079833984375 3.5986328125 -9.079833984375 3.5986328125 -8.329833984375 1.1611328125 C-5.512902574143368 -0.24733289261581604 -3.150584459869492 0.018280904451444258 0 0 Z " fill="currentColor" transform="translate(516.329833984375,392.8388671875)"/>
<path d="M0 0 C0.6603222656249841 -0.0035046386718704525 1.320644531250025 -0.007009277343740905 2.0009765625 -0.0106201171875 C4.188257324139272 -0.01943775134839143 6.375215827652369 -0.013588366794749618 8.5625 -0.0068359375 C10.07942771691097 -0.008182583608572713 11.596355013878679 -0.010123111216614689 13.11328125 -0.01263427734375 C16.294312584358863 -0.01558557585434528 19.475231694747094 -0.011287777445545544 22.65625 -0.001953125 C26.7387790171573 0.009441493468955287 30.821045089067297 0.002882041352563647 34.903564453125 -0.009098052978515625 C38.03647857757119 -0.016316543355344493 41.16933010935213 -0.014028793286513519 44.30224609375 -0.00884246826171875 C45.80778026216058 -0.007505936727170592 47.31332006868831 -0.009153816215075494 48.81884765625 -0.01380157470703125 C50.9210521214344 -0.01886672372279463 53.022827581501474 -0.011157210859551014 55.125 0 C55.723769531250014 0.000795593261727845 55.723769531250014 0.000795593261727845 58.75390625 0.00482177734375 C61.5625 0.2587890625 61.5625 0.2587890625 63.5625 2.2587890625 C63.6875 4.883789062499943 63.6875 4.883789062499943 63.5625 7.2587890625 C60.77612516348438 8.65197648075781 58.39078388510006 8.458466106552862 55.27734375 8.5400390625 C54.025019531249995 8.577421875000027 52.77269531249999 8.614804687499998 51.482421875 8.6533203125 C48.82357044416699 8.72373619149215 46.16471626547718 8.794048388497174 43.505859375 8.8642578125 C42.25482421875 8.901640625000027 41.003789062500005 8.939023437499998 39.71484375 8.9775390625 C38.55976318359376 9.007832031250018 37.40468261718752 9.03812499999998 36.214599609375 9.0693359375 C33.5625 9.2587890625 33.5625 9.2587890625 32.5625 10.2587890625 C32.41655113878596 12.160450062158702 32.33515996127778 14.067141442525383 32.28125 15.9736328125 C32.24386718749997 17.134433593749975 32.206484375 18.295234375000007 32.16796875 19.4912109375 C32.133164062499986 20.713886718750018 32.09835937499997 21.93656249999998 32.0625 23.1962890625 C31.99381997765363 25.60136169688917 31.921109361247886 28.00632370336382 31.84375 30.4111328125 C31.813457031249982 31.483552246093723 31.78316406250002 32.5559716796875 31.751953125 33.660888671875 C31.5625 36.2587890625 31.5625 36.2587890625 30.5625 38.2587890625 C28.6875 39.0087890625 28.6875 39.0087890625 26.5625 39.2587890625 C25.57249999999999 38.59878906250003 24.582499999999982 37.93878906250001 23.5625 37.2587890625 C23.14599609375 34.569091796875 23.14599609375 34.569091796875 23.0859375 31.1923828125 C23.055000000000007 29.985175781250007 23.024062500000014 28.777968750000014 22.9921875 27.5341796875 C22.974140625000018 26.267675781249977 22.95609374999998 25.00117187500001 22.9375 23.6962890625 C22.88673622950097 21.194904271159658 22.83225800529209 18.693591117080246 22.7734375 16.1923828125 C22.755874023437514 15.079196777343725 22.738310546875027 13.966010742187507 22.72021484375 12.819091796875 C22.5625 10.2587890625 22.5625 10.2587890625 21.5625 9.2587890625 C19.430045177971976 9.11239973643012 17.293046629614025 9.03133094337403 15.15625 8.9775390625 C14.505917968749998 8.958847656249986 14.505917968749998 8.958847656249986 11.21484375 8.8642578125 C9.83074329502358 8.828549658750319 8.446628317747184 8.793400357194798 7.0625 8.7587890625 C4.364356487882958 8.691319710829873 1.6666513098779205 8.617580329087161 -1.03125 8.5400390625 C-1.6329199218749864 8.524892578124991 -1.6329199218749864 8.524892578124991 -4.677734375 8.4482421875 C-7.4375 8.2587890625 -7.4375 8.2587890625 -8.4375 7.2587890625 C-8.625 4.8212890625 -8.625 4.8212890625 -8.4375 2.2587890625 C-5.641274180570349 -0.537436756929651 -3.9166868178323853 0.005204155318381254 0 0 Z " fill="currentColor" transform="translate(267.4375,392.7412109375)"/>


<path d="M0 0 C4.555555555555543 0.5555555555555429 4.555555555555543 0.5555555555555429 6 2 C6.088515291447948 4.593593217158912 6.115259448821348 7.160396913408135 6.09765625 9.75390625 C6.096241302490284 10.529352874755887 6.094826354980455 11.304799499511716 6.0933685302734375 12.103744506835938 C6.087753453199525 14.590034943466435 6.075198463913125 17.07623660328136 6.0625 19.5625 C6.057486939208502 21.244139328090057 6.0529236968774285 22.925780062113347 6.048828125 24.607421875 C6.037779131268735 28.738315660714477 6.020504446018435 32.86914275981519 6 37 C3.6875 38.125 3.6875 38.125 1 39 C0.009999999999990905 38.34000000000003 -0.9800000000000182 37.68000000000001 -2 37 C-2.291886043859222 34.328046444410234 -2.3961425865441015 31.891208525381785 -2.36328125 29.21875 C-2.363779754638699 28.449461669921902 -2.3642782592773983 27.680173339843748 -2.3647918701171875 26.8875732421875 C-2.362450055603631 25.260146268008043 -2.35271512862073 23.632715766570357 -2.336181640625 22.00537109375 C-2.3125922815956983 19.50976282200577 -2.315618981991406 17.015222613751234 -2.322265625 14.51953125 C-2.3166888687950404 12.94009777630049 -2.3095790023483005 11.36066881640238 -2.30078125 9.78125 C-2.301692657470653 9.032264404296882 -2.30260406494142 8.283278808593764 -2.3035430908203125 7.5115966796875 C-2.2310275861038917 2.231027586103835 -2.2310275861038917 2.231027586103835 0 0 Z " fill="currentColor" transform="translate(591,393)"/>
</svg>
